PathFileType	4	(X/Y/Z)	50_1_16_p1_0-242_filt_butterworth.trc
DataRate	CameraRate	NumFrames	NumMarkers	Units	OrigDataRate	OrigDataStartFrame	OrigNumFrames
59.0	59.0	4	27	m	59.0	0	242
Frame#	Time	RHip			RKnee			RAnkle			RBigToe			RSmallToe			RHeel			LHip			LKnee			LAnkle			LBigToe			LSmallToe			LHeel			Neck			Head			Nose			RShoulder			RElbow			RWrist			RThumb			RIndex			RPinky			LShoulder			LElbow			LWrist			LThumb			LIndex			LPinky			
		X1	Y1	Z1	X2	Y2	Z2	X3	Y3	Z3	X4	Y4	Z4	X5	Y5	Z5	X6	Y6	Z6	X7	Y7	Z7	X8	Y8	Z8	X9	Y9	Z9	X10	Y10	Z10	X11	Y11	Z11	X12	Y12	Z12	X13	Y13	Z13	X14	Y14	Z14	X15	Y15	Z15	X16	Y16	Z16	X17	Y17	Z17	X18	Y18	Z18	X19	Y19	Z19	X20	Y20	Z20	X21	Y21	Z21	X22	Y22	Z22	X23	Y23	Z23	X24	Y24	Z24	X25	Y25	Z25	X26	Y26	Z26	X27	Y27	Z27	
0	0.0	0.3042052394936099	0.7226285488289752	0.5335371364162269	0.2676423610572045	0.8156280743188631	0.9495099688487392	0.3011839409418132	1.0039652065269637	1.3631148742930443	0.24294134279550428	0.8164447290629697	1.4048316165474621	0.3087809441639927	0.8631634136941955	1.419766186405004	0.2796198119857676	1.1295426525060654	1.428449875099812	0.0756252964235212	0.7366263385528481	0.5445658193465086	0.08985274665910005	0.8953508382358017	0.9542045083555823	0.08654481890480221	1.031741281353079	1.380026288232068	0.10786975146125713	0.8319170102570931	1.3914654180011545	0.05309887512268047	0.8815087887681077	1.4064910623236861	0.09982706473631847	1.0978014007304966	1.4207787383285084	0.18065194791624953	0.587666530775725	-0.02903529450009264	0.21017067640821074	0.43318713198154046	-0.2587233366296	0.179030926935243	0.3922465514330027	-0.11082280892355978	0.32808965521425415	0.5667144659510375	0.05914019522818027	0.36404850533925953	0.6021176408562504	0.3075200153297268	0.24575252513037013	0.5433260134583202	0.5092474767581598	0.1968872123453111	0.5642800951243363	0.6049265254935665	0.18411640610715208	0.578316921388987	0.6067266861349833	0.1764437799410708	0.5760397899373164	0.6014914987664308	0.03536096457280699	0.6022929948574499	0.04340702901344852	0.006346552576982805	0.6017031618776338	0.29927169965773726	0.11868160499619504	0.5409025989420799	0.510937046342778	0.2074778643897006	0.5471884409912572	0.5841640920907799	0.2108645283497362	0.5539051201526289	0.6004384060424757	0.1873575680987898	0.579981746244914	0.6080144476734546
1	0.0169491525423728	0.30557746603341635	0.7134804133227591	0.5304327667828757	0.2675576265946697	0.8154108805541415	0.9495675155352906	0.3040126731509916	1.0047970440879008	1.3633675080477383	0.24727537300413222	0.8219016048011096	1.406531716353507	0.3092021554520365	0.8631865254986031	1.4194832276992828	0.2797308535890736	1.1298501312052918	1.4283816036258405	0.07601505136393448	0.7362426512798576	0.5422740875636757	0.08986180262740064	0.8926562565285153	0.9484137698584568	0.08609064570574801	1.0308648119855706	1.3754612035073943	0.10941409111936294	0.8424813594598844	1.3968940305325068	0.05318856184787389	0.8810192104262142	1.406221155481458	0.0981332063184574	1.0898650654826894	1.4180959012616035	0.18066223787766666	0.5877044147905682	-0.029033596112889488	0.21065415266632562	0.4331286319936114	-0.25656685499857745	0.18029250517365775	0.3926240359969709	-0.11084211728002549	0.33195658255457416	0.5575831628604321	0.05651483598456236	0.3640894004889792	0.6009423390749251	0.3040866894861364	0.2434670053480553	0.5514490321154075	0.5075703526477497	0.1967921301115896	0.5636643641242676	0.6047323273631965	0.18373084315781243	0.5777327061862503	0.6085241516457327	0.1762332440536102	0.5753391545362545	0.5996245049293066	0.03360267829208205	0.601703351508365	0.04351474099841776	0.006361419426638837	0.6019010374574182	0.3003801823906545	0.12072890159738044	0.5415765095086388	0.5108322201689258	0.2080574291812213	0.5467678203501565	0.5820768640689706	0.21062176975042962	0.5534097500651503	0.6002489128421924	0.18679802537038745	0.578673001326389	0.6076976552494279
2	0.0338983050847457	0.30589317261586524	0.7109054388098015	0.5286543215998362	0.2679984994501327	0.8167622879594487	0.9498861514626863	0.3056959707177709	1.005299342009937	1.363528389497032	0.24957956446969054	0.8242763012609604	1.4072833948195673	0.30945620801730606	0.8632380775570183	1.4194150722707692	0.2797931768267335	1.1300398170543375	1.4283580912774765	0.07693646595607616	0.735913611778136	0.540968736839491	0.08985382188687671	0.8910264917439247	0.9449727862521858	0.08576957809709512	1.0301716544850255	1.3724885251804722	0.1103387504743921	0.8487345800854371	1.400109305304761	0.05330090782294597	0.8808294238322636	1.4060658806733295	0.09651903932902195	1.0877708989679633	1.4172735884665706	0.18067284964984137	0.5877325279726053	-0.029033160850548242	0.21146316141372806	0.43095661737714985	-0.2548087955153512	0.181211716206299	0.39290954489314833	-0.11082643375895394	0.3342394512860407	0.5521170695877543	0.054484206844059246	0.3640562771037149	0.6003466242031383	0.30253934204608757	0.242004066960535	0.5552814714393358	0.5065488085489629	0.19679780756056217	0.5631932150657629	0.6046515722078306	0.1828433762472886	0.5772431288237414	0.6095674902251683	0.17619027139226207	0.5752875482601301	0.5991773141391763	0.03251499686114753	0.5996380842977203	0.04376173339831143	0.0063738822055285135	0.6020209438017856	0.30118615976598195	0.12158171304979916	0.5416805427298028	0.5107451592026823	0.20822971324837064	0.5465536875894936	0.5815406516021677	0.2104376874283904	0.5531333576001358	0.6001718288857778	0.1857733932183831	0.575899926499139	0.6073346127532067
3	0.0508474576271186	0.30519474369436034	0.7145106986676554	0.5283347539966822	0.2692364624356422	0.8205246577087859	0.9505942200409264	0.306156247796042	1.0054556202955196	1.3635910842537537	0.24957724538561915	0.8228603712080909	1.4068532711499202	0.309605001747123	0.8635192185677819	1.4199112365998792	0.2798016535979879	1.1300996381248574	1.4283536922679159	0.07857802931761182	0.7356838782620132	0.5405972418864	0.08982765543793002	0.890528930035404	0.9440321593577216	0.08554988339466849	1.0295368664625522	1.3710016945980041	0.1105983040037825	0.8503948215918488	1.4009717661358798	0.05342193538208091	0.8809458566807459	1.4060976522847586	0.09539403270879707	1.0900032818822056	1.4178831891381387	0.1806926195539003	0.5877524975737168	-0.02903103518077759	0.2124569450387515	0.4271541256477648	-0.2536181663229621	0.18190162946989338	0.3931360099804962	-0.11079338645309951	0.33484472058088394	0.5505889588512808	0.053404835055386526	0.36394540192145924	0.6002792942444037	0.3026613073704174	0.24125710792644378	0.5534469233790577	0.5061804250828986	0.19680334755178994	0.5628452765399	0.6046795499784855	0.1816057446619113	0.5769104956346325	0.6098312503297573	0.17631086444935698	0.5758097654231108	0.6000731007334009	0.032990464935381686	0.5955545498732062	0.044199941462669194	0.006391201474358635	0.6020601771959407	0.30179758522644984	0.12164377334503325	0.5412507235514511	0.5106879191288297	0.20802021009941646	0.5466012510677862	0.5824651523811559	0.21034528695793384	0.5530762361305546	0.6002035757556122	0.18446126098572457	0.5721460620771573	0.6069813976887541
